<svg width="576" height="576" viewBox="0 0 576 576" fill="none" xmlns="http://www.w3.org/2000/svg">
<path d="M46.0061 386.451V506.067C46.0061 518.719 56.3575 529.07 69.0092 529.07H506.068C518.719 529.07 529.071 518.719 529.071 506.067V386.451H46.0061Z" fill="#83E1E5"/>
<path d="M529.071 147.221V71.7707C529.071 59.119 518.719 48.7676 506.068 48.7676H69.0092C56.3575 48.7676 46.0061 59.119 46.0061 71.7707V147.221H529.071Z" fill="#83E1E5"/>
<path d="M534.822 575.077H40.2554C18.0574 575.077 0 557.02 0 534.822V40.2554C0 18.0574 18.0574 0 40.2554 0H534.822C557.02 0 575.077 18.0574 575.077 40.2554V534.822C575.077 557.02 557.02 575.077 534.822 575.077ZM40.2554 11.5015C24.3833 11.5015 11.5015 24.3833 11.5015 40.2554V534.822C11.5015 550.694 24.3833 563.575 40.2554 563.575H534.822C550.694 563.575 563.575 550.694 563.575 534.822V40.2554C563.575 24.3833 550.694 11.5015 534.822 11.5015H40.2554Z" fill="#1C1D21"/>
<path d="M46.0061 112.37C42.7857 112.37 40.2554 109.84 40.2554 106.619V71.7695C40.2554 55.8973 53.1371 43.0156 69.0092 43.0156H73.9549C77.1753 43.0156 79.7057 45.546 79.7057 48.7664C79.7057 51.9868 77.1753 54.5172 73.9549 54.5172H69.0092C59.4629 54.5172 51.7569 62.2232 51.7569 71.7695V106.619C51.7569 109.725 49.2266 112.37 46.0061 112.37Z" fill="#1C1D21"/>
<path d="M119.616 54.5172H102.364C99.1433 54.5172 96.6129 51.9868 96.6129 48.7664C96.6129 45.546 99.1433 43.0156 102.364 43.0156H119.616C122.836 43.0156 125.367 45.546 125.367 48.7664C125.367 51.9868 122.836 54.5172 119.616 54.5172Z" fill="#1C1D21"/>
<path d="M506.068 534.821H501.122C497.902 534.821 495.371 532.291 495.371 529.07C495.371 525.85 497.902 523.32 501.122 523.32H506.068C515.614 523.32 523.32 515.613 523.32 506.067V471.218C523.32 467.997 525.85 465.467 529.071 465.467C532.291 465.467 534.821 467.997 534.821 471.218V506.067C534.821 521.939 521.94 534.821 506.068 534.821Z" fill="#1C1D21"/>
<path d="M472.713 534.822H455.461C452.241 534.822 449.71 532.292 449.71 529.071C449.71 525.851 452.241 523.32 455.461 523.32H472.713C475.934 523.32 478.464 525.851 478.464 529.071C478.464 532.292 475.934 534.822 472.713 534.822Z" fill="#1C1D21"/>
<path d="M147.565 423.604H91.6672C85.3413 423.604 80.1656 428.779 80.1656 435.105V473.405C80.1656 479.731 85.3413 484.907 91.6672 484.907H147.68C154.006 484.907 159.181 479.731 159.181 473.405V435.105C159.066 428.779 154.006 423.604 147.565 423.604Z" fill="white"/>
<path d="M259.59 423.604H203.577C197.251 423.604 192.076 428.779 192.076 435.105V473.405C192.076 479.731 197.251 484.907 203.577 484.907H259.59C265.916 484.907 271.091 479.731 271.091 473.405V435.105C271.091 428.779 265.916 423.604 259.59 423.604Z" fill="white"/>
<path d="M371.5 423.604H315.487C309.161 423.604 303.986 428.779 303.986 435.105V473.405C303.986 479.731 309.161 484.907 315.487 484.907H371.5C377.826 484.907 383.001 479.731 383.001 473.405V435.105C383.001 428.779 377.826 423.604 371.5 423.604Z" fill="white"/>
<path d="M483.41 423.604H427.397C421.071 423.604 415.896 428.779 415.896 435.105V473.405C415.896 479.731 421.071 484.907 427.397 484.907H483.41C489.736 484.907 494.911 479.731 494.911 473.405V435.105C494.911 428.779 489.851 423.604 483.41 423.604Z" fill="white"/>
<path d="M201.277 126.055C198.977 126.055 196.906 124.675 195.986 122.605L181.494 89.8252L167.002 122.605C166.082 124.675 164.012 126.055 161.712 126.055C159.411 126.055 157.341 124.675 156.421 122.605L136.638 77.9786C135.373 75.1032 136.638 71.6527 139.514 70.3876C142.389 69.1224 145.839 70.3876 147.105 73.263L161.597 106.042L176.088 73.263C177.009 71.1927 179.079 69.8125 181.379 69.8125C183.679 69.8125 185.75 71.1927 186.67 73.263L201.277 106.042L215.769 73.263C217.034 70.3876 220.484 69.0074 223.36 70.3876C226.235 71.6527 227.615 75.1032 226.235 77.9786L206.453 122.605C205.647 124.675 203.577 126.055 201.277 126.055Z" fill="#1C1D21"/>
<path d="M307.321 126.055C305.021 126.055 302.95 124.675 302.03 122.605L287.538 89.8252L273.046 122.605C272.126 124.675 270.056 126.055 267.756 126.055C265.455 126.055 263.385 124.675 262.465 122.605L242.682 77.9786C241.417 75.1032 242.682 71.6527 245.558 70.3876C248.433 69.1224 251.884 70.3876 253.149 73.263L267.641 106.042L282.133 73.263C283.053 71.1927 285.123 69.8125 287.423 69.8125C289.724 69.8125 291.794 71.1927 292.714 73.263L307.206 106.042L321.698 73.263C322.963 70.3876 326.414 69.0074 329.289 70.3876C332.164 71.6527 333.545 75.1032 332.164 77.9786L312.382 122.605C311.692 124.675 309.621 126.055 307.321 126.055Z" fill="#1C1D21"/>
<path d="M413.365 126.055C411.065 126.055 408.995 124.675 408.075 122.605L393.583 89.8252L379.091 122.605C378.171 124.675 376.1 126.055 373.8 126.055C371.5 126.055 369.429 124.675 368.509 122.605L348.727 77.9786C347.462 75.1032 348.727 71.6527 351.602 70.3876C354.477 69.1224 357.928 70.3876 359.193 73.263L373.8 106.042L388.292 73.263C389.212 71.1927 391.282 69.8125 393.583 69.8125C395.883 69.8125 397.953 71.1927 398.873 73.263L413.365 106.042L427.857 73.263C429.122 70.3876 432.573 69.0074 435.448 70.3876C438.324 71.6527 439.704 75.1032 438.324 77.9786L418.656 122.605C417.736 124.675 415.666 126.055 413.365 126.055Z" fill="#1C1D21"/>
<path d="M287.538 460.981C367.956 460.981 433.148 395.789 433.148 315.371C433.148 234.953 367.956 169.762 287.538 169.762C207.12 169.762 141.929 234.953 141.929 315.371C141.929 395.789 207.12 460.981 287.538 460.981Z" fill="#FDDF7F"/>
<path d="M287.538 460.981C328.637 460.981 361.953 395.789 361.953 315.371C361.953 234.953 328.637 169.762 287.538 169.762C246.44 169.762 213.124 234.953 213.124 315.371C213.124 395.789 246.44 460.981 287.538 460.981Z" fill="#FDDF7F"/>
<path d="M400.368 223.246C373.685 190.581 333.084 169.648 287.538 169.648C241.992 169.648 201.392 190.466 174.708 223.246C201.392 241.188 241.992 252.69 287.538 252.69C333.084 252.805 373.685 241.303 400.368 223.246Z" fill="#FDDF7F"/>
<path d="M174.708 407.499C201.392 440.163 241.992 461.096 287.538 461.096C333.084 461.096 373.685 440.278 400.368 407.499C373.685 389.556 333.084 378.055 287.538 378.055C241.992 378.055 201.392 389.441 174.708 407.499Z" fill="#FDDF7F"/>
<path d="M287.538 466.732C204.037 466.732 136.178 398.873 136.178 315.372C136.178 231.871 204.037 164.012 287.538 164.012C371.04 164.012 438.899 231.871 438.899 315.372C438.899 398.873 371.04 466.732 287.538 466.732ZM287.538 175.513C210.363 175.513 147.68 238.312 147.68 315.372C147.68 392.547 210.478 455.231 287.538 455.231C364.599 455.231 427.397 392.432 427.397 315.372C427.397 238.197 364.714 175.513 287.538 175.513Z" fill="#1C1D21"/>
<path d="M287.538 466.732C265.34 466.732 244.867 450.515 229.8 420.956C215.308 392.662 207.372 355.167 207.372 315.372C207.372 275.577 215.308 238.082 229.8 209.788C244.867 180.229 265.34 164.012 287.538 164.012C309.736 164.012 330.209 180.229 345.276 209.788C359.768 238.082 367.704 275.577 367.704 315.372C367.704 355.167 359.768 392.662 345.276 420.956C330.209 450.515 309.736 466.732 287.538 466.732ZM287.538 175.513C269.941 175.513 253.034 189.545 240.037 215.079C226.35 241.762 218.874 277.417 218.874 315.487C218.874 353.442 226.35 389.097 240.037 415.895C253.034 441.429 269.941 455.461 287.538 455.461C305.136 455.461 322.043 441.429 335.039 415.895C348.726 389.212 356.202 353.557 356.202 315.487C356.202 277.532 348.726 241.877 335.039 215.079C322.043 189.545 305.136 175.513 287.538 175.513Z" fill="#1C1D21"/>
<path d="M287.538 258.554C242.567 258.554 200.242 247.513 171.488 228.075C170.108 227.155 169.302 225.775 168.957 224.165C168.727 222.555 169.187 220.944 170.223 219.679C199.091 184.254 241.877 164.012 287.538 164.012C333.199 164.012 375.87 184.254 404.854 219.679C405.889 220.944 406.349 222.555 406.119 224.165C405.889 225.775 404.969 227.155 403.589 228.075C374.835 247.398 332.509 258.554 287.538 258.554ZM183.449 221.979C210.133 237.967 247.628 247.053 287.538 247.053C327.449 247.053 364.944 237.967 391.627 221.979C365.059 192.305 327.449 175.513 287.538 175.513C247.628 175.513 210.018 192.305 183.449 221.979Z" fill="#1C1D21"/>
<path d="M287.538 466.732C241.877 466.732 199.206 446.489 170.223 411.065C169.187 409.799 168.727 408.189 168.957 406.579C169.187 404.969 170.108 403.589 171.488 402.669C200.242 383.346 242.567 372.189 287.538 372.189C332.509 372.189 374.835 383.231 403.589 402.669C404.969 403.589 405.774 404.969 406.119 406.579C406.349 408.189 405.889 409.799 404.854 411.065C375.87 446.489 333.199 466.732 287.538 466.732ZM183.449 408.764C210.018 438.438 247.628 455.231 287.538 455.231C327.449 455.231 365.059 438.323 391.627 408.764C364.944 392.777 327.449 383.691 287.538 383.691C247.628 383.806 210.133 392.777 183.449 408.764Z" fill="#1C1D21"/>
<path d="M287.538 466.732C284.318 466.732 281.788 464.202 281.788 460.981V169.762C281.788 166.542 284.318 164.012 287.538 164.012C290.759 164.012 293.289 166.542 293.289 169.762V460.981C293.289 464.202 290.759 466.732 287.538 466.732Z" fill="#1C1D21"/>
<path d="M433.148 321.123H141.929C138.708 321.123 136.178 318.592 136.178 315.372C136.178 312.151 138.708 309.621 141.929 309.621H433.148C436.368 309.621 438.898 312.151 438.898 315.372C438.898 318.592 436.368 321.123 433.148 321.123Z" fill="#1C1D21"/>
</svg>
