<svg width="798" height="801" viewBox="0 0 798 801" fill="none" xmlns="http://www.w3.org/2000/svg">
<path d="M606.474 71.3192V748.909C606.222 761.484 600.991 773.445 591.928 782.166C582.865 790.887 570.712 795.656 558.137 795.424H173.498C160.914 795.668 148.749 790.906 139.676 782.183C130.602 773.461 125.364 761.492 125.112 748.909V71.3192C125.364 58.7358 130.602 46.7674 139.676 38.0449C148.749 29.3225 160.914 24.5598 173.498 24.8039H558.137C570.712 24.5727 582.865 29.3411 591.928 38.0622C600.991 46.7833 606.222 58.7443 606.474 71.3192Z" fill="#68E1FD"/>
<path d="M558.137 800.218H173.498C159.646 800.45 146.269 795.177 136.299 785.558C126.329 775.939 120.582 762.759 120.317 748.908V71.318C120.582 57.467 126.329 44.2865 136.299 34.6674C146.269 25.0484 159.646 19.7762 173.498 20.0073H558.137C571.98 19.789 585.346 25.0669 595.305 34.6846C605.264 44.3023 611.005 57.4755 611.27 71.318V748.908C611.005 762.75 605.264 775.923 595.305 785.541C585.346 795.159 571.98 800.437 558.137 800.218ZM173.498 29.5981C162.19 29.3665 151.251 33.6281 143.08 41.4486C134.909 49.2692 130.172 60.0106 129.908 71.318V748.908C130.172 760.215 134.909 770.956 143.08 778.777C151.251 786.598 162.19 790.859 173.498 790.628H558.137C569.44 790.859 580.374 786.596 588.537 778.774C596.701 770.952 601.427 760.211 601.679 748.908V71.318C601.427 60.0149 596.701 49.2734 588.537 41.4516C580.374 33.6297 569.44 29.3666 558.137 29.5981H173.498Z" fill="#093F68"/>
<path d="M126.646 114.521H604.939V691.504H126.646V114.521Z" fill="white"/>
<path d="M604.939 696.3H126.646C125.374 696.3 124.154 695.794 123.255 694.895C122.356 693.996 121.851 692.776 121.851 691.504V114.522C121.851 113.25 122.356 112.03 123.255 111.131C124.154 110.232 125.374 109.727 126.646 109.727H604.939C606.211 109.727 607.431 110.232 608.33 111.131C609.229 112.03 609.734 113.25 609.734 114.522V691.504C609.734 692.776 609.229 693.996 608.33 694.895C607.431 695.794 606.211 696.3 604.939 696.3ZM131.441 686.709H600.144V119.317H131.441V686.709Z" fill="#093F68"/>
<path d="M439.689 81.7722C443.821 81.7722 447.17 78.4229 447.17 74.2914C447.17 70.1598 443.821 66.8105 439.689 66.8105C435.558 66.8105 432.209 70.1598 432.209 74.2914C432.209 78.4229 435.558 81.7722 439.689 81.7722Z" fill="#093F68"/>
<path d="M403.965 79.2295H284.415C283.144 79.2295 281.924 78.7242 281.024 77.8249C280.125 76.9256 279.62 75.7059 279.62 74.4341C279.62 73.1623 280.125 71.9425 281.024 71.0432C281.924 70.1439 283.144 69.6387 284.415 69.6387H403.965C405.236 69.6387 406.456 70.1439 407.355 71.0432C408.255 71.9425 408.76 73.1623 408.76 74.4341C408.76 75.7059 408.255 76.9256 407.355 77.8249C406.456 78.7242 405.236 79.2295 403.965 79.2295Z" fill="#093F68"/>
<path d="M365.793 772.647C359.454 772.656 353.254 770.784 347.979 767.268C342.703 763.752 338.59 758.749 336.16 752.894C333.729 747.039 333.091 740.594 334.325 734.376C335.56 728.157 338.612 722.445 343.094 717.962C347.577 713.48 353.29 710.428 359.508 709.193C365.726 707.959 372.171 708.597 378.026 711.028C383.881 713.458 388.884 717.571 392.4 722.846C395.916 728.122 397.788 734.322 397.779 740.661C397.766 749.14 394.392 757.269 388.396 763.264C382.401 769.26 374.273 772.634 365.793 772.647ZM365.793 718.219C361.353 718.209 357.009 719.517 353.312 721.978C349.615 724.438 346.731 727.94 345.025 732.04C343.319 736.14 342.868 740.654 343.728 745.01C344.589 749.367 346.723 753.37 349.859 756.513C352.996 759.657 356.995 761.799 361.349 762.669C365.704 763.539 370.219 763.097 374.323 761.4C378.426 759.703 381.934 756.826 384.402 753.135C386.87 749.443 388.188 745.102 388.188 740.661C388.188 734.717 385.83 729.016 381.632 724.809C377.433 720.602 371.737 718.232 365.793 718.219Z" fill="#093F68"/>
<path d="M185.726 196.814H67.5196L131.826 113.566H224.713L185.726 196.814Z" fill="#F56132"/>
<path d="M185.725 201.61H67.5187C66.6199 201.612 65.7388 201.361 64.9757 200.887C64.2126 200.412 63.5983 199.732 63.2028 198.925C62.8592 198.15 62.727 197.298 62.8196 196.456C62.9123 195.614 63.2265 194.811 63.7303 194.13L127.941 110.642C128.387 110.061 128.961 109.591 129.618 109.267C130.274 108.943 130.997 108.773 131.729 108.771H224.616C225.418 108.773 226.207 108.975 226.911 109.361C227.615 109.746 228.211 110.302 228.644 110.977C229.117 111.676 229.397 112.488 229.456 113.33C229.515 114.172 229.351 115.015 228.98 115.773L190.281 198.829C189.883 199.692 189.237 200.417 188.426 200.912C187.615 201.407 186.675 201.65 185.725 201.61ZM77.3013 192.02H182.8L217.279 118.362H134.175L77.3013 192.02Z" fill="#093F68"/>
<path d="M67.5196 196.812H185.726V206.691C185.726 221.444 179.865 235.593 169.433 246.025C159.001 256.457 144.853 262.318 130.1 262.318H123.146C108.393 262.318 94.2443 256.457 83.8122 246.025C73.3802 235.593 67.5196 221.444 67.5196 206.691V196.812Z" fill="#F56132"/>
<path d="M130.148 267.114H123.146C107.125 267.101 91.764 260.731 80.4355 249.402C69.1069 238.074 62.7369 222.713 62.7242 206.692V196.813C62.7242 195.541 63.2294 194.321 64.1287 193.422C65.028 192.523 66.2478 192.018 67.5196 192.018H185.726C186.998 192.018 188.218 192.523 189.117 193.422C190.016 194.321 190.522 195.541 190.522 196.813V206.692C190.509 222.704 184.145 238.058 172.827 249.385C161.509 260.713 146.16 267.088 130.148 267.114ZM72.315 201.608V206.692C72.3277 220.169 77.6872 233.091 87.2172 242.621C96.7471 252.151 109.669 257.51 123.146 257.523H130.148C143.617 257.497 156.526 252.132 166.046 242.604C175.565 233.075 180.918 220.161 180.931 206.692V201.608H72.315Z" fill="#093F68"/>
<path d="M306.282 196.814H188.075L226.534 113.566H319.421L306.282 196.814Z" fill="white"/>
<path d="M306.282 201.605H188.075C187.265 201.612 186.466 201.413 185.753 201.027C185.04 200.642 184.437 200.082 183.999 199.399C183.534 198.696 183.262 197.882 183.211 197.04C183.161 196.198 183.333 195.358 183.711 194.604L222.074 111.356C222.46 110.524 223.076 109.819 223.849 109.326C224.622 108.833 225.521 108.572 226.438 108.575H319.325C320.025 108.566 320.718 108.71 321.356 108.997C321.995 109.285 322.562 109.708 323.019 110.239C323.476 110.769 323.811 111.392 324.002 112.066C324.192 112.739 324.233 113.446 324.121 114.137L310.981 197.337C310.853 198.499 310.304 199.574 309.439 200.36C308.573 201.146 307.451 201.589 306.282 201.605ZM195.556 192.015H302.206L313.81 118.357H229.603L195.556 192.015Z" fill="#093F68"/>
<path d="M188.075 196.812H306.282V206.691C306.282 221.444 300.421 235.593 289.989 246.025C279.557 256.457 265.408 262.318 250.655 262.318H243.654C228.901 262.318 214.752 256.457 204.32 246.025C193.888 235.593 188.027 221.444 188.027 206.691V196.812H188.075Z" fill="white"/>
<path d="M250.655 267.114H243.654C227.641 267.088 212.292 260.713 200.974 249.385C189.656 238.058 183.293 222.704 183.28 206.692V196.813C183.28 195.541 183.785 194.321 184.684 193.422C185.584 192.523 186.804 192.018 188.075 192.018H306.282C307.554 192.018 308.773 192.523 309.673 193.422C310.572 194.321 311.077 195.541 311.077 196.813V206.692C311.065 222.713 304.695 238.074 293.366 249.402C282.038 260.731 266.676 267.101 250.655 267.114ZM192.871 201.608V206.692C192.883 220.161 198.236 233.075 207.756 242.604C217.276 252.132 230.185 257.497 243.654 257.523H250.655C264.133 257.51 277.054 252.151 286.584 242.621C296.114 233.091 301.474 220.169 301.487 206.692V201.608H192.871Z" fill="#093F68"/>
<path d="M426.839 196.814H308.584L321.244 113.566H414.179L426.839 196.814Z" fill="#F56132"/>
<path d="M426.838 201.612H308.584C307.899 201.605 307.224 201.452 306.604 201.162C305.983 200.873 305.432 200.454 304.987 199.933C304.539 199.411 304.208 198.797 304.018 198.135C303.827 197.473 303.782 196.778 303.884 196.097L316.544 112.801C316.718 111.658 317.299 110.615 318.18 109.866C319.061 109.117 320.183 108.712 321.34 108.725H414.274C415.431 108.712 416.553 109.117 417.434 109.866C418.316 110.615 418.896 111.658 419.07 112.801L431.73 196.049C431.832 196.73 431.787 197.425 431.596 198.087C431.406 198.749 431.075 199.363 430.627 199.885C430.166 200.439 429.586 200.882 428.93 201.181C428.274 201.48 427.559 201.627 426.838 201.612ZM314.194 192.021H421.228L410.055 118.364H325.368L314.194 192.021Z" fill="#093F68"/>
<path d="M308.584 196.812H426.791V206.691C426.791 221.444 420.93 235.593 410.498 246.025C400.066 256.457 385.917 262.318 371.164 262.318H364.163C349.41 262.318 335.261 256.457 324.829 246.025C314.397 235.593 308.536 221.444 308.536 206.691V196.812H308.584Z" fill="#F56132"/>
<path d="M371.212 267.114H364.211C348.19 267.101 332.829 260.731 321.5 249.402C310.172 238.074 303.802 222.713 303.789 206.692V196.813C303.789 195.541 304.294 194.321 305.193 193.422C306.093 192.523 307.313 192.018 308.584 192.018H426.839C428.111 192.018 429.33 192.523 430.23 193.422C431.129 194.321 431.634 195.541 431.634 196.813V206.692C431.622 222.713 425.252 238.074 413.923 249.402C402.594 260.731 387.233 267.101 371.212 267.114ZM313.38 201.608V206.692C313.405 220.165 318.769 233.079 328.296 242.607C337.823 252.134 350.737 257.497 364.211 257.523H371.212C384.686 257.497 397.6 252.134 407.127 242.607C416.655 233.079 422.018 220.165 422.043 206.692V201.608H313.38Z" fill="#093F68"/>
<path d="M547.347 196.814H429.14L416.001 113.566H508.888L547.347 196.814Z" fill="white"/>
<path d="M547.346 201.611H429.14C427.983 201.624 426.861 201.219 425.98 200.469C425.099 199.72 424.518 198.678 424.345 197.535L411.205 114.335C411.093 113.644 411.134 112.937 411.324 112.263C411.514 111.59 411.85 110.966 412.307 110.436C412.764 109.906 413.331 109.482 413.969 109.195C414.607 108.907 415.301 108.763 416.001 108.772H508.887C509.805 108.77 510.703 109.03 511.477 109.523C512.25 110.016 512.866 110.721 513.251 111.553L551.614 194.801C551.992 195.555 552.165 196.396 552.114 197.238C552.064 198.08 551.792 198.893 551.327 199.597C550.876 200.23 550.278 200.744 549.585 201.095C548.892 201.446 548.123 201.623 547.346 201.611ZM433.216 192.02H539.866L505.818 118.363H421.611L433.216 192.02Z" fill="#093F68"/>
<path d="M429.14 196.812H547.347V206.691C547.347 221.444 541.486 235.593 531.054 246.025C520.622 256.457 506.473 262.318 491.72 262.318H484.719C469.966 262.318 455.817 256.457 445.385 246.025C434.953 235.593 429.092 221.444 429.092 206.691V196.812H429.14Z" fill="white"/>
<path d="M491.768 267.114H484.767C468.746 267.101 453.384 260.731 442.056 249.402C430.727 238.074 424.357 222.713 424.345 206.692V196.813C424.345 195.541 424.85 194.321 425.749 193.422C426.649 192.523 427.868 192.018 429.14 192.018H547.347C548.619 192.018 549.838 192.523 550.738 193.422C551.637 194.321 552.142 195.541 552.142 196.813V206.692C552.129 222.704 545.766 238.058 534.448 249.385C523.13 260.713 507.781 267.088 491.768 267.114ZM433.936 201.608V206.692C433.948 220.169 439.308 233.091 448.838 242.621C458.368 252.151 471.289 257.51 484.767 257.523H491.768C505.237 257.497 518.147 252.132 527.666 242.604C537.186 233.075 542.539 220.161 542.551 206.692V201.608H433.936Z" fill="#093F68"/>
<path d="M667.903 196.814H549.696L510.71 113.566H603.597L667.903 196.814Z" fill="#F56132"/>
<path d="M667.902 201.605H549.936C549.018 201.607 548.12 201.346 547.346 200.853C546.573 200.36 545.957 199.656 545.572 198.824L506.585 115.575C506.214 114.817 506.05 113.975 506.109 113.133C506.168 112.291 506.448 111.479 506.921 110.78C507.354 110.105 507.95 109.549 508.654 109.164C509.358 108.778 510.147 108.576 510.949 108.574H603.836C604.568 108.576 605.291 108.745 605.947 109.07C606.604 109.394 607.178 109.864 607.624 110.444L671.931 193.693C672.434 194.374 672.749 195.177 672.841 196.019C672.934 196.861 672.802 197.713 672.458 198.488C672.112 199.413 671.489 200.21 670.674 200.768C669.858 201.326 668.89 201.618 667.902 201.605ZM552.813 192.014H658.312L601.246 118.357H518.238L552.813 192.014Z" fill="#093F68"/>
<path d="M549.697 196.812H667.904V206.691C667.904 221.444 662.043 235.593 651.611 246.025C641.179 256.457 627.03 262.318 612.277 262.318H605.276C590.522 262.318 576.374 256.457 565.942 246.025C555.51 235.593 549.649 221.444 549.649 206.691V196.812H549.697Z" fill="#F56132"/>
<path d="M612.276 267.114H605.275C589.304 267.025 574.016 260.621 562.75 249.301C551.483 237.981 545.153 222.663 545.14 206.692V196.813C545.14 195.541 545.646 194.321 546.545 193.422C547.444 192.523 548.664 192.018 549.936 192.018H667.903C669.174 192.018 670.394 192.523 671.293 193.422C672.193 194.321 672.698 195.541 672.698 196.813V206.692C672.685 222.713 666.315 238.074 654.987 249.402C643.658 260.731 628.297 267.101 612.276 267.114ZM554.731 201.608V206.692C554.744 220.161 560.097 233.075 569.616 242.604C579.136 252.132 592.045 257.497 605.514 257.523H612.276C625.753 257.51 638.675 252.151 648.205 242.621C657.735 233.091 663.095 220.169 663.107 206.692V201.608H554.731Z" fill="#093F68"/>
<path d="M708.711 795.426H522.362L536.796 609.029H694.277L708.711 795.426Z" fill="#FFBC0E"/>
<path d="M708.712 800.222H522.363C521.697 800.227 521.038 800.093 520.427 799.829C519.816 799.564 519.267 799.176 518.814 798.688C518.366 798.199 518.023 797.623 517.809 796.996C517.594 796.369 517.512 795.704 517.567 795.043L531.954 608.694C532.039 607.481 532.581 606.346 533.471 605.518C534.362 604.69 535.533 604.231 536.749 604.234H694.278C695.493 604.231 696.665 604.69 697.555 605.518C698.446 606.346 698.988 607.481 699.073 608.694L713.459 795.043C713.543 796.375 713.095 797.686 712.212 798.688C711.765 799.17 711.224 799.555 710.622 799.819C710.02 800.083 709.369 800.22 708.712 800.222ZM527.542 790.632H703.389L689.674 613.825H541.017L527.542 790.632Z" fill="#093F68"/>
<path d="M649.249 635.161C647.977 635.161 646.758 634.655 645.858 633.756C644.959 632.857 644.454 631.637 644.454 630.365V595.695C644.454 588.025 641.407 580.671 635.984 575.248C630.562 569.825 623.207 566.778 615.538 566.778C607.868 566.778 600.514 569.825 595.091 575.248C589.668 580.671 586.621 588.025 586.621 595.695V630.365C586.621 631.637 586.116 632.857 585.217 633.756C584.317 634.655 583.098 635.161 581.826 635.161C580.554 635.161 579.334 634.655 578.435 633.756C577.536 632.857 577.031 631.637 577.031 630.365V595.695C577.031 590.638 578.027 585.63 579.962 580.959C581.897 576.287 584.733 572.042 588.309 568.466C591.885 564.89 596.13 562.054 600.802 560.119C605.473 558.184 610.481 557.188 615.538 557.188C620.594 557.188 625.602 558.184 630.274 560.119C634.945 562.054 639.19 564.89 642.766 568.466C646.342 572.042 649.178 576.287 651.113 580.959C653.049 585.63 654.045 590.638 654.045 595.695V630.365C654.045 631.637 653.539 632.857 652.64 633.756C651.741 634.655 650.521 635.161 649.249 635.161Z" fill="#093F68"/>
<path d="M4.55539 654.154H206.202V795.427H4.55539V654.154Z" fill="#70CC40"/>
<path d="M206.202 800.223H4.7954C3.52358 800.223 2.30385 799.717 1.40454 798.818C0.505224 797.919 0 796.699 0 795.427V654.155C0 652.883 0.505224 651.663 1.40454 650.764C2.30385 649.865 3.52358 649.359 4.7954 649.359H206.442C207.714 649.359 208.933 649.865 209.833 650.764C210.732 651.663 211.237 652.883 211.237 654.155V795.427C211.238 796.078 211.107 796.721 210.851 797.319C210.595 797.917 210.22 798.457 209.749 798.906C209.278 799.354 208.721 799.702 208.111 799.929C207.501 800.155 206.852 800.255 206.202 800.223ZM9.5908 790.632H201.646V658.95H9.83058L9.5908 790.632Z" fill="#093F68"/>
<path d="M81.3298 654.154H129.428V702.252H81.3298V654.154Z" fill="#FFBC0E"/>
<path d="M129.428 707.045H81.4737C80.2019 707.045 78.9822 706.54 78.0829 705.64C77.1836 704.741 76.6783 703.521 76.6783 702.249V654.295C76.6783 653.024 77.1836 651.804 78.0829 650.905C78.9822 650.005 80.2019 649.5 81.4737 649.5H129.428C130.7 649.5 131.919 650.005 132.819 650.905C133.718 651.804 134.223 653.024 134.223 654.295V702.249C134.223 703.521 133.718 704.741 132.819 705.64C131.919 706.54 130.7 707.045 129.428 707.045ZM86.2691 697.454H124.632V659.091H86.2691V697.454Z" fill="#093F68"/>
<path d="M66.6564 772.644H35.1507C33.8788 772.644 32.6591 772.138 31.7598 771.239C30.8605 770.34 30.3553 769.12 30.3553 767.848C30.3553 766.576 30.8605 765.357 31.7598 764.457C32.6591 763.558 33.8788 763.053 35.1507 763.053H66.6564C67.9283 763.053 69.148 763.558 70.0473 764.457C70.9466 765.357 71.4518 766.576 71.4518 767.848C71.4518 769.12 70.9466 770.34 70.0473 771.239C69.148 772.138 67.9283 772.644 66.6564 772.644Z" fill="#093F68"/>
<path d="M38.2192 540.74H200.064V654.151H38.2192V540.74Z" fill="#F56132"/>
<path d="M199.872 658.947H38.2192C36.9473 658.947 35.7276 658.442 34.8283 657.543C33.929 656.643 33.4238 655.424 33.4238 654.152V540.741C33.4238 539.469 33.929 538.249 34.8283 537.35C35.7276 536.451 36.9473 535.945 38.2192 535.945H199.872C201.144 535.945 202.364 536.451 203.263 537.35C204.162 538.249 204.667 539.469 204.667 540.741V654.152C204.667 655.424 204.162 656.643 203.263 657.543C202.364 658.442 201.144 658.947 199.872 658.947ZM42.8228 649.356H195.077V545.536H43.0146L42.8228 649.356Z" fill="#093F68"/>
<path d="M99.8405 540.74H138.443V579.343H99.8405V540.74Z" fill="#FFBC0E"/>
<path d="M138.443 584.134H99.8405C98.5687 584.134 97.349 583.628 96.4496 582.729C95.5503 581.83 95.0451 580.61 95.0451 579.338V540.975C95.0451 539.703 95.5503 538.484 96.4496 537.584C97.349 536.685 98.5687 536.18 99.8405 536.18H138.443C139.715 536.18 140.935 536.685 141.834 537.584C142.734 538.484 143.239 539.703 143.239 540.975V579.338C143.239 580.61 142.734 581.83 141.834 582.729C140.935 583.628 139.715 584.134 138.443 584.134ZM104.636 574.543H133.648V545.77H104.636V574.543Z" fill="#093F68"/>
<path d="M88.0439 636.79H62.7722C61.5004 636.79 60.2806 636.285 59.3813 635.385C58.482 634.486 57.9768 633.266 57.9768 631.995C57.9768 630.723 58.482 629.503 59.3813 628.604C60.2806 627.704 61.5004 627.199 62.7722 627.199H88.0439C89.3157 627.199 90.5354 627.704 91.4347 628.604C92.334 629.503 92.8393 630.723 92.8393 631.995C92.8393 633.266 92.334 634.486 91.4347 635.385C90.5354 636.285 89.3157 636.79 88.0439 636.79Z" fill="#093F68"/>
<path d="M487.931 354.629H247.49C237.055 354.629 228.596 363.088 228.596 373.523V375.345C228.596 385.78 237.055 394.239 247.49 394.239H487.931C498.366 394.239 506.825 385.78 506.825 375.345V373.523C506.825 363.088 498.366 354.629 487.931 354.629Z" fill="#68E1FD"/>
<path d="M487.931 399.035H247.49C241.222 398.96 235.233 396.433 230.805 391.997C226.377 387.56 223.863 381.566 223.801 375.298V373.523C223.801 367.24 226.297 361.215 230.739 356.772C235.182 352.33 241.207 349.834 247.49 349.834H487.931C494.214 349.834 500.24 352.33 504.682 356.772C509.125 361.215 511.621 367.24 511.621 373.523V375.298C511.558 381.566 509.044 387.56 504.616 391.997C500.188 396.433 494.199 398.96 487.931 399.035ZM247.49 359.425C243.751 359.425 240.165 360.91 237.521 363.554C234.877 366.198 233.392 369.784 233.392 373.523V375.298C233.453 379.022 234.957 382.578 237.586 385.216C240.215 387.854 243.766 389.37 247.49 389.444H487.931C491.656 389.37 495.206 387.854 497.835 385.216C500.465 382.578 501.968 379.022 502.03 375.298V373.523C502.03 369.784 500.544 366.198 497.9 363.554C495.256 360.91 491.67 359.425 487.931 359.425H247.49Z" fill="#093F68"/>
<path d="M447.027 529.999H288.396C284.287 529.924 280.333 528.417 277.216 525.738C274.1 523.059 272.016 519.377 271.324 515.326L248.402 394.434H487.021L464.099 515.134C463.448 519.22 461.381 522.947 458.261 525.665C455.14 528.382 451.164 529.916 447.027 529.999Z" fill="#68E1FD"/>
<path d="M447.027 534.797H288.395C283.177 534.711 278.151 532.812 274.179 529.426C270.207 526.04 267.536 521.378 266.624 516.239L243.702 395.299C243.572 394.61 243.595 393.901 243.769 393.221C243.943 392.542 244.264 391.909 244.709 391.367C245.16 390.826 245.725 390.39 246.363 390.092C247.001 389.794 247.697 389.639 248.402 389.641H487.021C487.725 389.639 488.421 389.794 489.06 390.092C489.698 390.39 490.262 390.826 490.713 391.367C491.158 391.909 491.479 392.542 491.653 393.221C491.827 393.901 491.85 394.61 491.72 395.299L468.798 516.239C467.886 521.378 465.216 526.04 461.244 529.426C457.272 532.812 452.246 534.711 447.027 534.797ZM254.204 399.231L276.071 514.321C276.541 517.276 278.031 519.973 280.282 521.944C282.534 523.915 285.404 525.036 288.395 525.111H447.027C450.018 525.036 452.889 523.915 455.14 521.944C457.392 519.973 458.882 517.276 459.351 514.321L481.218 399.231H254.204Z" fill="#093F68"/>
<path d="M314.339 412.373H314.291C309.206 412.373 305.084 416.495 305.084 421.58V494.998C305.084 500.083 309.206 504.205 314.291 504.205H314.339C319.424 504.205 323.546 500.083 323.546 494.998V421.58C323.546 416.495 319.424 412.373 314.339 412.373Z" fill="#093F68"/>
<path d="M314.291 508.948C310.577 508.948 307.016 507.473 304.39 504.847C301.764 502.221 300.288 498.659 300.288 494.945V421.576C300.498 417.997 302.067 414.634 304.674 412.175C307.282 409.716 310.73 408.346 314.315 408.346C317.899 408.346 321.348 409.716 323.956 412.175C326.563 414.634 328.132 417.997 328.341 421.576V494.945C328.329 498.663 326.843 502.225 324.209 504.849C321.576 507.474 318.009 508.948 314.291 508.948ZM314.291 417.164C313.121 417.164 311.999 417.629 311.171 418.456C310.344 419.283 309.879 420.406 309.879 421.576V494.945C309.993 496.042 310.51 497.058 311.329 497.796C312.148 498.535 313.212 498.943 314.315 498.943C315.418 498.943 316.481 498.535 317.301 497.796C318.12 497.058 318.636 496.042 318.751 494.945V421.576C318.738 420.401 318.263 419.279 317.428 418.453C316.593 417.627 315.465 417.164 314.291 417.164Z" fill="#093F68"/>
<path d="M367.759 412.373H367.711C362.626 412.373 358.504 416.495 358.504 421.58V494.998C358.504 500.083 362.626 504.205 367.711 504.205H367.759C372.844 504.205 376.966 500.083 376.966 494.998V421.58C376.966 416.495 372.844 412.373 367.759 412.373Z" fill="#093F68"/>
<path d="M367.711 508.951C363.997 508.951 360.436 507.476 357.81 504.85C355.184 502.224 353.709 498.662 353.709 494.948V421.579C353.709 417.865 355.184 414.303 357.81 411.677C360.436 409.051 363.997 407.576 367.711 407.576C371.425 407.576 374.986 409.051 377.612 411.677C380.238 414.303 381.714 417.865 381.714 421.579V494.948C381.714 498.662 380.238 502.224 377.612 504.85C374.986 507.476 371.425 508.951 367.711 508.951ZM367.711 417.167C366.541 417.167 365.419 417.632 364.591 418.459C363.764 419.286 363.299 420.409 363.299 421.579V494.948C363.299 496.118 363.764 497.241 364.591 498.068C365.419 498.895 366.541 499.36 367.711 499.36C368.881 499.36 370.003 498.895 370.831 498.068C371.658 497.241 372.123 496.118 372.123 494.948V421.579C372.123 420.409 371.658 419.286 370.831 418.459C370.003 417.632 368.881 417.167 367.711 417.167Z" fill="#093F68"/>
<path d="M421.18 412.373H421.132C416.047 412.373 411.925 416.495 411.925 421.58V494.998C411.925 500.083 416.047 504.205 421.132 504.205H421.18C426.265 504.205 430.388 500.083 430.388 494.998V421.58C430.388 416.495 426.265 412.373 421.18 412.373Z" fill="#093F68"/>
<path d="M421.132 508.948C417.414 508.948 413.848 507.474 411.214 504.849C408.58 502.225 407.095 498.663 407.082 494.945V421.576C407.291 417.997 408.86 414.634 411.468 412.175C414.075 409.716 417.524 408.346 421.108 408.346C424.693 408.346 428.142 409.716 430.749 412.175C433.357 414.634 434.926 417.997 435.135 421.576V494.945C435.135 498.659 433.66 502.221 431.034 504.847C428.408 507.473 424.846 508.948 421.132 508.948ZM421.132 417.164C419.958 417.164 418.831 417.627 417.996 418.453C417.161 419.279 416.685 420.401 416.673 421.576V494.945C416.787 496.042 417.303 497.058 418.123 497.796C418.942 498.535 420.006 498.943 421.108 498.943C422.211 498.943 423.275 498.535 424.094 497.796C424.913 497.058 425.43 496.042 425.544 494.945V421.576C425.544 420.406 425.079 419.283 424.252 418.456C423.425 417.629 422.302 417.164 421.132 417.164Z" fill="#093F68"/>
<path d="M261.445 381.336C259.473 381.256 257.573 380.57 256.005 379.37C254.438 378.17 253.278 376.516 252.686 374.633C252.093 372.75 252.096 370.73 252.694 368.849C253.291 366.967 254.455 365.316 256.026 364.121L345.652 301.781C347.706 300.785 350.048 300.555 352.257 301.131C354.465 301.707 356.396 303.052 357.702 304.924C359.007 306.796 359.603 309.073 359.381 311.344C359.159 313.616 358.134 315.734 356.49 317.318L267.008 379.802C265.355 380.872 263.413 381.408 261.445 381.336Z" fill="#68E1FD"/>
<path d="M261.445 386.132C258.454 386.047 255.564 385.032 253.177 383.228C250.79 381.423 249.025 378.919 248.128 376.064C247.231 373.21 247.246 370.146 248.172 367.301C249.098 364.455 250.888 361.969 253.293 360.189L342.919 297.609C346.018 296.01 349.592 295.591 352.976 296.43C356.361 297.269 359.325 299.309 361.319 302.17C363.312 305.031 364.199 308.519 363.813 311.984C363.428 315.45 361.797 318.658 359.223 321.011L269.597 383.734C267.183 385.336 264.342 386.172 261.445 386.132ZM351.071 304.61C350.115 304.608 349.18 304.892 348.386 305.426L258.76 367.766C257.766 368.496 257.092 369.582 256.878 370.796C256.663 372.011 256.925 373.261 257.609 374.288C258.339 375.281 259.425 375.955 260.639 376.17C261.854 376.384 263.104 376.122 264.131 375.438L353.709 312.859C354.419 312.304 354.959 311.56 355.266 310.712C355.573 309.865 355.635 308.948 355.444 308.067C355.254 307.186 354.819 306.376 354.19 305.731C353.561 305.086 352.762 304.631 351.886 304.419L351.071 304.61Z" fill="#093F68"/>
<path d="M473.977 381.336C475.95 381.256 477.849 380.57 479.417 379.37C480.985 378.17 482.144 376.516 482.737 374.633C483.33 372.75 483.327 370.73 482.729 368.849C482.131 366.967 480.967 365.316 479.396 364.121L389.77 301.781C387.716 300.785 385.374 300.555 383.166 301.131C380.957 301.707 379.027 303.052 377.721 304.924C376.415 306.796 375.82 309.073 376.042 311.344C376.264 313.616 377.289 315.734 378.932 317.318L468.415 379.802C470.067 380.872 472.01 381.408 473.977 381.336Z" fill="#68E1FD"/>
<path d="M473.978 386.139C471.066 386.137 468.223 385.251 465.825 383.598L376.199 321.018C373.131 318.827 371.045 315.52 370.39 311.807C369.736 308.094 370.564 304.273 372.699 301.165C374.881 298.102 378.176 296.016 381.878 295.353C385.58 294.689 389.394 295.502 392.504 297.616L482.13 360.196C484.535 361.977 486.325 364.463 487.251 367.308C488.176 370.154 488.192 373.217 487.295 376.072C486.398 378.926 484.633 381.43 482.246 383.235C479.859 385.039 476.969 386.055 473.978 386.139ZM384.352 304.618H383.536C382.66 304.83 381.862 305.285 381.233 305.93C380.603 306.575 380.169 307.385 379.978 308.266C379.788 309.147 379.85 310.064 380.157 310.911C380.464 311.759 381.004 312.503 381.714 313.058L471.292 375.637C472.319 376.321 473.569 376.583 474.784 376.369C475.998 376.154 477.083 375.48 477.814 374.487C478.498 373.46 478.759 372.21 478.545 370.995C478.331 369.781 477.657 368.695 476.663 367.965L387.037 305.625C386.266 305.023 385.329 304.672 384.352 304.618Z" fill="#093F68"/>
<path d="M478.053 575.602H257.369C238.883 575.602 223.897 590.587 223.897 609.073C223.897 627.559 238.883 642.545 257.369 642.545H478.053C496.539 642.545 511.525 627.559 511.525 609.073C511.525 590.587 496.539 575.602 478.053 575.602Z" fill="white"/>
<path d="M478.005 647.297H257.417C247.242 647.297 237.484 643.255 230.29 636.06C223.095 628.866 219.053 619.108 219.053 608.933C219.053 598.759 223.095 589.001 230.29 581.807C237.484 574.612 247.242 570.57 257.417 570.57H478.005C488.179 570.57 497.937 574.612 505.132 581.807C512.326 589.001 516.368 598.759 516.368 608.933C516.368 619.108 512.326 628.866 505.132 636.06C497.937 643.255 488.179 647.297 478.005 647.297ZM257.417 580.161C253.638 580.161 249.897 580.905 246.406 582.351C242.915 583.797 239.743 585.917 237.071 588.588C234.4 591.26 232.28 594.432 230.834 597.923C229.388 601.414 228.644 605.155 228.644 608.933C228.644 612.712 229.388 616.453 230.834 619.944C232.28 623.435 234.4 626.607 237.071 629.279C239.743 631.95 242.915 634.07 246.406 635.516C249.897 636.962 253.638 637.706 257.417 637.706H478.005C481.783 637.706 485.525 636.962 489.016 635.516C492.506 634.07 495.678 631.95 498.35 629.279C501.022 626.607 503.141 623.435 504.587 619.944C506.033 616.453 506.777 612.712 506.777 608.933C506.777 605.155 506.033 601.414 504.587 597.923C503.141 594.432 501.022 591.26 498.35 588.588C495.678 585.917 492.506 583.797 489.016 582.351C485.525 580.905 481.783 580.161 478.005 580.161H257.417Z" fill="#DFEAEF"/>
<path d="M653.769 0C574.382 0 510 64.3824 510 143.769C510 223.156 574.382 287.538 653.769 287.538C733.156 287.538 797.538 223.156 797.538 143.769C797.538 64.3824 733.156 0 653.769 0ZM722.386 192.781L702.781 212.386L653.769 163.374L604.757 212.386L585.152 192.781L634.164 143.769L585.152 94.7569L604.757 75.152L653.769 124.164L702.781 75.152L722.386 94.7569L673.374 143.769L722.386 192.781Z" fill="black"/>
</svg>
