<svg width="115" height="80" viewBox="0 0 115 80" fill="none" xmlns="http://www.w3.org/2000/svg">
<path d="M106.753 1.44263H7.69945C4.24484 1.44263 1.44434 4.24314 1.44434 7.69774V72.3052C1.44434 75.7598 4.24484 78.5603 7.69945 78.5603H106.753C110.207 78.5603 113.008 75.7598 113.008 72.3052V7.69774C113.008 4.24314 110.207 1.44263 106.753 1.44263Z" fill="#88B0EA"/>
<path d="M106.753 1.44409H7.69945C6.04074 1.44409 4.44995 2.10291 3.27693 3.27566C2.10391 4.44841 1.44472 6.03905 1.44434 7.69776V14.1821H113.008V7.69776C113.007 6.03905 112.348 4.44841 111.175 3.27566C110.002 2.10291 108.411 1.44409 106.753 1.44409Z" fill="#4E73A8"/>
<path d="M14.7041 24.4099H48.7689V66.5917H14.7041V24.4099Z" fill="white"/>
<path d="M41.795 56.2083C41.421 52.1518 39.1711 48.4343 34.8247 47.3939C43.6023 43.9421 41.3037 30.8546 31.7365 30.7344C22.1694 30.8553 19.8718 43.9435 28.6483 47.3939C24.303 48.4332 22.0517 52.1529 21.678 56.2083L20.9072 66.5917H42.5687L41.795 56.2083Z" fill="#FFD071"/>
<path d="M101.453 58.9436H91.5004C89.6054 58.9122 89.6 56.0879 91.5004 56.0554H101.453C103.348 56.0868 103.354 58.9111 101.453 58.9436Z" fill="#4E73A8"/>
<path d="M81.5484 58.9436H59.5479C57.6568 58.9133 57.6446 56.0883 59.5479 56.0554H81.5484C83.4398 56.0857 83.452 58.9108 81.5484 58.9436Z" fill="#4E73A8"/>
<path d="M101.453 50.1074H59.5476C57.6634 50.0793 57.6382 47.2525 59.5476 47.2192H101.453C103.337 47.2474 103.363 50.0742 101.453 50.1074Z" fill="#4E73A8"/>
<path d="M101.453 41.4871H59.5476C57.6634 41.4589 57.6382 38.6325 59.5476 38.5989H101.453C103.337 38.627 103.363 41.4535 101.453 41.4871Z" fill="#4E73A8"/>
<path d="M101.453 32.8667H68.5575C66.6701 32.8378 66.651 30.0117 68.5575 29.9785H101.453C103.341 30.0078 103.36 32.8335 101.453 32.8667Z" fill="#4E73A8"/>
<path d="M106.752 80.003H7.69957C5.65853 80.0007 3.70172 79.1891 2.25832 77.746C0.814921 76.3029 0.00277095 74.3463 0 72.3053V7.69777C0.00277095 5.65673 0.814921 3.70011 2.25832 2.25705C3.70172 0.813984 5.65853 0.00229239 7.69957 0H106.752C108.793 0.00229239 110.75 0.813984 112.194 2.25705C113.637 3.70011 114.449 5.65673 114.452 7.69777V72.3053C114.449 74.3463 113.637 76.3029 112.194 77.746C110.75 79.1891 108.793 80.0007 106.752 80.003ZM7.69957 2.8882C6.42427 2.88963 5.20158 3.39675 4.29963 4.29836C3.39769 5.19997 2.89011 6.42246 2.8882 7.69777V72.3053C2.89011 73.5806 3.39769 74.8031 4.29963 75.7047C5.20158 76.6063 6.42427 77.1134 7.69957 77.1148H106.752C108.028 77.1134 109.251 76.6061 110.153 75.7042C111.055 74.8023 111.562 73.5794 111.564 72.3038V7.69777C111.562 6.42246 111.054 5.19997 110.152 4.29836C109.25 3.39675 108.028 2.88963 106.752 2.8882H7.69957Z" fill="#383A49"/>
<path d="M106.461 15.6262H1.44405C-0.414866 15.5934 -0.497901 12.7926 1.44405 12.738H106.461C108.32 12.7709 108.403 15.5714 106.461 15.6262Z" fill="#383A49"/>
<path d="M113.008 15.6262C112.625 15.6262 112.258 15.4741 111.987 15.2033C111.716 14.9324 111.564 14.5651 111.564 14.1821V7.69777C111.562 6.42246 111.054 5.19997 110.152 4.29836C109.25 3.39675 108.028 2.88963 106.752 2.8882H7.69957C6.42427 2.88963 5.20158 3.39675 4.29963 4.29836C3.39769 5.19997 2.89011 6.42246 2.8882 7.69777V14.1821C2.86509 16.071 0.0361025 16.0927 0 14.1821V7.69777C0.00277095 5.65673 0.814921 3.70011 2.25832 2.25705C3.70172 0.813984 5.65853 0.00229239 7.69957 0H106.752C108.793 0.00229239 110.75 0.813984 112.194 2.25705C113.637 3.70011 114.449 5.65673 114.452 7.69777V14.1821C114.452 14.5651 114.3 14.9324 114.029 15.2033C113.758 15.4741 113.391 15.6262 113.008 15.6262Z" fill="#383A49"/>
<path d="M48.7683 68.0358H42.5681C40.6702 68.0033 40.6695 65.1797 42.5681 65.1476H47.3257V25.854H16.148V65.1476H35.6433C36.0263 65.1476 36.3936 65.2997 36.6644 65.5705C36.9352 65.8414 37.0874 66.2087 37.0874 66.5917C37.0874 66.9747 36.9352 67.342 36.6644 67.6128C36.3936 67.8836 36.0263 68.0358 35.6433 68.0358H14.7039C14.3209 68.0358 13.9536 67.8836 13.6827 67.6128C13.4119 67.342 13.2598 66.9747 13.2598 66.5917V24.4099C13.2598 24.0269 13.4119 23.6596 13.6827 23.3888C13.9536 23.118 14.3209 22.9658 14.7039 22.9658H48.7683C49.1513 22.9658 49.5186 23.118 49.7895 23.3888C50.0603 23.6596 50.2124 24.0269 50.2124 24.4099V66.5917C50.2124 66.9747 50.0603 67.342 49.7895 67.6128C49.5186 67.8836 49.1513 68.0358 48.7683 68.0358Z" fill="#383A49"/>
<path d="M20.9068 68.0357C20.7079 68.0357 20.5113 67.9946 20.329 67.9151C20.1467 67.8356 19.9828 67.7194 19.8475 67.5737C19.7122 67.428 19.6084 67.256 19.5425 67.0684C19.4767 66.8808 19.4502 66.6816 19.4648 66.4833L20.2371 56.1002C20.4898 52.4589 22.3816 49.0357 25.3997 47.1533C18.1121 41.2881 22.327 29.2602 31.7371 29.2891C41.1465 29.2602 45.3622 41.2899 38.0738 47.1533C41.0902 49.0361 42.9838 52.4604 43.2365 56.0999L44.0084 66.4833C44.1167 68.37 41.3065 68.5957 41.1281 66.6974L40.3566 56.3143C40.2424 54.4916 39.5758 52.7468 38.4453 51.3123C37.4784 50.0396 36.091 49.1516 34.5304 48.8065C34.2283 48.7388 33.9557 48.5762 33.7527 48.3425C33.5496 48.1087 33.4267 47.8162 33.4019 47.5075C33.3771 47.1989 33.4517 46.8905 33.6148 46.6273C33.7779 46.3641 34.0209 46.1601 34.3084 46.045C35.8724 45.4445 37.1769 44.3154 37.9954 42.8536C38.814 41.3918 39.095 39.6896 38.7896 38.0423C38.4843 36.395 37.6119 34.9065 36.3238 33.8352C35.0357 32.7639 33.4132 32.1774 31.7379 32.1773C23.8155 32.2827 21.8299 43.1081 29.1677 46.045C29.4552 46.1601 29.6982 46.3641 29.8613 46.6273C30.0244 46.8905 30.099 47.1989 30.0742 47.5075C30.0494 47.8162 29.9265 48.1087 29.7234 48.3425C29.5204 48.5762 29.2478 48.7388 28.9457 48.8065C25.6207 49.4801 23.3231 52.9005 23.1199 56.3158L22.3476 66.6992C22.3205 67.0627 22.1569 67.4025 21.8896 67.6504C21.6224 67.8982 21.2713 68.0359 20.9068 68.0357Z" fill="#383A49"/>
</svg>
