<svg width="88" height="79" viewBox="0 0 88 79" fill="none" xmlns="http://www.w3.org/2000/svg">
<path d="M65.8486 0C49.8092 0 43.9162 16.0194 43.9162 16.0194C43.9162 16.0194 38.1036 0 21.9544 0C9.81692 0 -4.01896 9.4013 1.0908 30.7725C6.20056 52.1436 43.9601 78.7663 43.9601 78.7663C43.9601 78.7663 81.5805 52.1436 86.6976 30.7725C91.8074 9.4013 78.9671 0 65.8486 0Z" fill="#F44336"/>
<path d="M19.4803 1.5955C32.0717 1.5955 38.3235 14.8246 40.344 20.1835C40.6295 20.949 41.7202 20.9705 42.0496 20.2264L43.8944 16.0123C41.2956 7.89881 34.1508 0 21.9547 0C16.9035 0 11.5668 1.63128 7.41602 5.0727C11.0836 2.71879 15.3808 1.5955 19.4803 1.5955Z" fill="#CC3333"/>
<path d="M65.8485 0C61.9759 0 58.4474 0.822793 55.6948 2.48269C57.6275 1.75291 60.0213 1.5955 62.3932 1.5955C74.2598 1.5955 84.882 10.3887 80.087 30.7152C75.9728 48.1656 51.9321 69.3364 44.5895 77.4141C44.121 77.9292 43.96 78.7592 43.96 78.7592C43.96 78.7592 81.5804 52.1365 86.6975 30.7653C91.8072 9.40131 78.9889 0 65.8485 0Z" fill="#CC3333"/>
<path d="M9.51681 11.3401C12.262 7.99174 17.1668 5.22286 21.3249 8.41387C23.5723 10.1382 22.5914 13.6726 20.5782 15.1608C17.65 17.3358 15.1024 18.6451 13.3162 22.0508C12.2474 24.097 11.6032 26.3364 11.2738 28.6188C11.142 29.5203 9.93409 29.7421 9.48021 28.9479C6.39093 23.5962 5.51246 16.2268 9.51681 11.3401Z" fill="#FF8A80"/>
<path d="M53.5275 18.3805C52.2391 18.3805 51.3313 17.1642 51.7999 15.9909C52.671 13.8301 53.7984 11.741 55.1527 9.88073C57.1585 7.13332 60.9725 5.53066 63.3883 7.19771C65.8627 8.90054 65.5406 12.3062 63.8056 13.9518C60.0794 17.479 55.3796 18.3805 53.5275 18.3805Z" fill="#FF8A80"/>
</svg>
