<svg width="97" height="83" viewBox="0 0 97 83" fill="none" xmlns="http://www.w3.org/2000/svg">
<path d="M69.8991 75.8375H16.9781C12.7444 75.8375 9.41797 73.0367 9.41797 69.4722V13.4576C9.41797 9.89301 12.7444 7.09229 16.9781 7.09229H69.8991C74.1328 7.09229 77.4593 9.89301 77.4593 13.4576V69.4722C77.4593 73.0367 74.1328 75.8375 69.8991 75.8375Z" fill="#0097A7" stroke="#37474F" stroke-width="3.30816" stroke-miterlimit="10" stroke-linecap="round" stroke-linejoin="round"/>
<path d="M69.8991 70.7452H16.9781C12.7444 70.7452 9.41797 67.9445 9.41797 64.3799V8.36529C9.41797 4.80073 12.7444 2 16.9781 2H69.8991C74.1328 2 77.4593 4.80073 77.4593 8.36529V64.3799C77.4593 67.9445 74.1328 70.7452 69.8991 70.7452Z" fill="#26C6DA" stroke="#37474F" stroke-width="3.30816" stroke-miterlimit="10" stroke-linecap="round" stroke-linejoin="round"/>
<path d="M65.9677 71.3816H16.978C14.1051 71.3816 11.6859 70.2359 10.1738 68.4536V69.4721C10.1738 72.6547 13.1979 75.2008 16.978 75.2008H65.3629C65.8165 74.437 66.1189 73.5458 66.1189 72.6547C66.2701 72.2728 66.1189 71.7636 65.9677 71.3816Z" fill="#006064"/>
<path d="M16.978 70.1087H65.3629C65.2117 69.8541 65.0605 69.7268 64.9093 69.4722C65.6653 68.5811 66.1189 67.4353 66.1189 66.2895C66.1189 65.1438 65.6653 63.998 64.9093 63.1069C65.6653 62.2158 66.1189 61.07 66.1189 59.9243C66.1189 58.7785 65.6653 57.6327 64.9093 56.7416C65.6653 55.8505 66.1189 54.7047 66.1189 53.559C66.1189 50.3763 63.0948 47.8302 59.3148 47.8302H45.7065V40.8284C45.7065 37.6457 42.6824 35.0996 38.9024 35.0996H37.3903C34.8199 35.0996 32.4006 36.3727 31.3422 38.2823L28.4694 42.9926C26.3525 46.4298 22.8749 49.2306 18.6412 50.7582L18.1876 50.8855C16.978 49.7398 15.1635 48.976 13.1979 48.976H10.1738V64.2527C10.325 67.5626 13.3491 70.1087 16.978 70.1087Z" fill="#0097A7"/>
<path d="M5.78889 79.6565H13.349C15.4659 79.6565 17.1291 78.2561 17.1291 76.4739V59.9241C17.1291 58.1418 15.4659 56.7415 13.349 56.7415H5.78889C3.67205 56.7415 2.00882 58.1418 2.00882 59.9241V76.4739C1.85762 78.1288 3.67205 79.6565 5.78889 79.6565Z" fill="#455A64" stroke="#37474F" stroke-width="3.30816" stroke-miterlimit="10" stroke-linecap="round" stroke-linejoin="round"/>
<path d="M63.2456 59.9243C63.2456 58.142 61.5824 56.7416 59.4655 56.7416C61.5824 56.7416 63.2456 55.3413 63.2456 53.559C63.2456 51.7767 61.5824 50.3763 59.4655 50.3763H42.8332V40.8284C42.8332 39.0461 41.17 37.6458 39.0532 37.6458H37.5411C36.1803 37.6458 34.8195 38.2823 34.2147 39.428L31.3418 44.1383C28.9226 48.2121 24.9913 51.3948 20.0016 53.1771L16.9775 54.1955V72.0183L23.3281 74.3098C26.2009 75.3283 29.225 75.8375 32.249 75.8375H59.3143C61.4312 75.8375 63.0944 74.4371 63.0944 72.6549C63.0944 70.8726 61.4312 69.4722 59.3143 69.4722C61.4312 69.4722 63.0944 68.0719 63.0944 66.2896C63.0944 64.5073 61.4312 63.1069 59.3143 63.1069C61.4312 63.1069 63.2456 61.7066 63.2456 59.9243Z" fill="#ECEFF1" stroke="#37474F" stroke-width="3.30816" stroke-miterlimit="10" stroke-linecap="round" stroke-linejoin="round"/>
<path d="M21.2119 55.4685C26.8064 53.4316 31.3425 49.8671 34.0642 45.284L36.937 40.5737" stroke="white" stroke-width="3.30816" stroke-miterlimit="10" stroke-linecap="round" stroke-linejoin="round"/>
<path d="M61.5824 75.2007C60.9776 75.5826 60.2216 75.8372 59.3143 75.8372H32.249C29.225 75.8372 26.2009 75.328 23.3281 74.3096L16.9775 72.0181V77.1103L23.3281 79.4018C26.2009 80.4203 29.225 80.9295 32.249 80.9295H59.3143C61.4312 80.9295 63.0944 79.5291 63.0944 77.7468C63.2456 76.7284 62.4896 75.8372 61.5824 75.2007Z" fill="#B0BEC5" stroke="#37474F" stroke-width="3.30816" stroke-miterlimit="10" stroke-linecap="round" stroke-linejoin="round"/>
<path d="M5.78889 74.5642H13.349C15.4659 74.5642 17.1291 73.1639 17.1291 71.3816V54.8318C17.1291 53.0495 15.4659 51.6492 13.349 51.6492H5.78889C3.67205 51.6492 2.00882 53.0495 2.00882 54.8318V71.3816C1.85762 73.0366 3.67205 74.5642 5.78889 74.5642Z" fill="#78909C" stroke="#37474F" stroke-width="3.30816" stroke-miterlimit="10" stroke-linecap="round" stroke-linejoin="round"/>
<path d="M59.3144 56.7415H54.7783H59.3144Z" fill="#B0BEC5"/>
<path d="M59.3144 56.7415H54.7783" stroke="#37474F" stroke-width="3.30816" stroke-miterlimit="10" stroke-linecap="round" stroke-linejoin="round"/>
<path d="M59.3144 63.1069H54.7783H59.3144Z" fill="#B0BEC5"/>
<path d="M59.3144 63.1069H54.7783" stroke="#37474F" stroke-width="3.30816" stroke-miterlimit="10" stroke-linecap="round" stroke-linejoin="round"/>
<path d="M59.3144 69.4722H54.7783H59.3144Z" fill="#B0BEC5"/>
<path d="M59.3144 69.4722H54.7783" stroke="#37474F" stroke-width="3.30816" stroke-miterlimit="10" stroke-linecap="round" stroke-linejoin="round"/>
<path d="M9.41761 59.2875C11.0878 59.2875 12.4417 58.1476 12.4417 56.7414C12.4417 55.3352 11.0878 54.1953 9.41761 54.1953C7.74747 54.1953 6.39355 55.3352 6.39355 56.7414C6.39355 58.1476 7.74747 59.2875 9.41761 59.2875Z" fill="#ECEFF1" stroke="#37474F" stroke-width="3.30816" stroke-miterlimit="10" stroke-linecap="round" stroke-linejoin="round"/>
<path d="M12.4414 13.4576V8.36532C12.4414 6.20112 14.407 4.54614 16.9775 4.54614H23.0256" stroke="#80DEEA" stroke-width="3.30816" stroke-miterlimit="10" stroke-linecap="round" stroke-linejoin="round"/>
<path d="M18.4893 11.5479H68.3862" stroke="#37474F" stroke-width="3.30816" stroke-miterlimit="10" stroke-linecap="round" stroke-linejoin="round"/>
<path d="M18.4893 19.1863H43.5889" stroke="#37474F" stroke-width="3.30816" stroke-miterlimit="10" stroke-linecap="round" stroke-linejoin="round"/>
<path d="M18.4893 26.8245H54.7779" stroke="#37474F" stroke-width="3.30816" stroke-miterlimit="10" stroke-linecap="round" stroke-linejoin="round"/>
<path d="M57.1982 35.0996C57.1982 44.393 65.968 51.904 76.8546 52.2859V17.9133C65.8168 18.2952 57.1982 25.8063 57.1982 35.0996Z" fill="#0097A7"/>
<path d="M77.4586 49.7396C87.0619 49.7396 94.847 43.1849 94.847 35.0994C94.847 27.0139 87.0619 20.4592 77.4586 20.4592C67.8553 20.4592 60.0703 27.0139 60.0703 35.0994C60.0703 43.1849 67.8553 49.7396 77.4586 49.7396Z" fill="#FFCA28" stroke="#37474F" stroke-width="3.30816" stroke-miterlimit="10" stroke-linecap="round" stroke-linejoin="round"/>
<path d="M63.2461 35.0997C63.2461 28.4798 69.7478 23.0056 77.6104 23.0056" stroke="#FFE082" stroke-width="3.30816" stroke-miterlimit="10" stroke-linecap="round" stroke-linejoin="round"/>
<path d="M69.2937 36.6272L73.5274 40.1918C74.4346 40.9556 75.7954 40.9556 76.7026 40.1918L85.7748 32.5534C86.682 31.7896 86.682 30.6438 85.7748 29.88C84.8676 29.1162 83.5068 29.1162 82.5995 29.88L75.1906 36.118L72.469 33.8265C71.5617 33.0627 70.2009 33.0627 69.2937 33.8265C68.3865 34.7176 68.3865 35.9907 69.2937 36.6272Z" fill="#ECEFF1" stroke="#37474F" stroke-width="3.30816" stroke-miterlimit="10" stroke-linecap="round" stroke-linejoin="round"/>
</svg>
