<svg width="363" height="473" viewBox="0 0 363 473" fill="none" xmlns="http://www.w3.org/2000/svg">
<path d="M9.65308 425.513V448.071C9.65268 451.917 11.1659 455.608 13.8656 458.347C16.5652 461.086 20.2344 462.652 24.0798 462.708H338.844C342.726 462.708 346.449 461.166 349.194 458.421C351.938 455.676 353.48 451.953 353.48 448.071V24.0838C353.48 20.2019 351.938 16.4791 349.194 13.7342C346.449 10.9893 342.726 9.44727 338.844 9.44727H149.146L9.65308 141.648V440.674" fill="white"/>
<path d="M9.65308 147.727H133.932C137.814 147.727 141.537 146.185 144.282 143.44C147.027 140.695 148.569 136.972 148.569 133.09V16.7324" fill="#FF8898"/>
<path d="M190.904 169.393L217.187 222.64L275.89 231.139L233.397 272.583L243.417 331.076L190.904 303.43L138.391 331.076L148.411 272.583L105.918 231.139L164.621 222.64L190.904 169.393Z" fill="#FFEB97"/>
<path d="M338.844 472.146H24.0795C17.6932 472.146 11.5685 469.609 7.05271 465.093C2.53694 460.578 0 454.453 0 448.067V141.644C0.0163964 140.347 0.299681 139.068 0.832196 137.885C1.36471 136.703 2.13504 135.643 3.09518 134.772L142.693 2.57057C144.439 0.925051 146.746 0.00595753 149.146 0L338.844 0C345.23 0 351.355 2.53694 355.87 7.05271C360.386 11.5685 362.923 17.6932 362.923 24.0795V448.067C362.923 454.453 360.386 460.578 355.87 465.093C351.355 469.609 345.23 472.146 338.844 472.146ZM19.0957 425.509V448.067C19.0957 449.458 19.6484 450.792 20.6322 451.776C21.6161 452.76 22.9504 453.313 24.3418 453.313H338.844C340.235 453.313 341.569 452.76 342.553 451.776C343.537 450.792 344.09 449.458 344.09 448.067V24.0795C344.09 22.6881 343.537 21.3538 342.553 20.3699C341.569 19.3861 340.235 18.8334 338.844 18.8334H152.923L19.0957 145.736V425.509Z" fill="#576065"/>
<path d="M133.932 157.385H9.65289C7.14847 157.385 4.74662 156.39 2.97573 154.619C1.20484 152.848 0.209961 150.446 0.209961 147.942C0.209961 145.438 1.20484 143.036 2.97573 141.265C4.74662 139.494 7.14847 138.499 9.65289 138.499H133.932C135.324 138.499 136.658 137.946 137.642 136.963C138.626 135.979 139.178 134.644 139.178 133.253V16.7378C139.178 14.2334 140.173 11.8316 141.944 10.0607C143.715 8.2898 146.117 7.29492 148.621 7.29492C151.126 7.29492 153.528 8.2898 155.298 10.0607C157.069 11.8316 158.064 14.2334 158.064 16.7378V133.096C158.092 136.28 157.488 139.438 156.287 142.387C155.086 145.336 153.312 148.018 151.068 150.277C148.823 152.536 146.153 154.327 143.212 155.547C140.271 156.767 137.117 157.392 133.932 157.385Z" fill="#576065"/>
<path d="M243.418 340.52C241.934 340.492 240.478 340.115 239.168 339.419L190.904 314.133L142.745 339.419C141.184 340.252 139.419 340.629 137.653 340.508C135.887 340.386 134.19 339.771 132.757 338.731C131.324 337.692 130.212 336.271 129.548 334.63C128.884 332.989 128.694 331.195 129.001 329.451L138.181 275.836L99.2556 237.855C97.994 236.624 97.102 235.065 96.6806 233.353C96.2592 231.642 96.3252 229.847 96.8711 228.171C97.4169 226.495 98.4209 225.005 99.7694 223.871C101.118 222.736 102.757 222.001 104.502 221.749L158.379 213.985L182.458 165.197C183.322 163.716 184.559 162.488 186.046 161.635C187.532 160.781 189.217 160.332 190.931 160.332C192.645 160.332 194.329 160.781 195.815 161.635C197.302 162.488 198.539 163.716 199.403 165.197L223.43 213.985L277.255 221.802C278.999 222.053 280.638 222.788 281.987 223.923C283.335 225.058 284.339 226.548 284.885 228.223C285.431 229.899 285.497 231.694 285.076 233.406C284.654 235.117 283.762 236.676 282.501 237.907L243.575 275.889L252.756 329.451C252.984 330.803 252.915 332.189 252.554 333.511C252.193 334.834 251.549 336.062 250.665 337.111C249.781 338.159 248.68 339.002 247.438 339.582C246.195 340.162 244.841 340.464 243.47 340.468L243.418 340.52ZM190.904 293.778C192.441 293.779 193.954 294.157 195.311 294.88L230.932 313.608L224.112 274C223.858 272.493 223.973 270.946 224.448 269.493C224.923 268.04 225.744 266.725 226.84 265.659L255.641 237.592L215.876 231.822C214.348 231.597 212.899 231.002 211.655 230.087C210.411 229.172 209.411 227.967 208.741 226.576L190.904 190.745L173.12 226.786C172.45 228.177 171.45 229.382 170.206 230.297C168.962 231.211 167.513 231.807 165.986 232.032L126.22 237.802L155.231 265.816C156.327 266.882 157.148 268.198 157.623 269.651C158.098 271.104 158.214 272.65 157.959 274.158L151.139 313.765L186.708 295.089C187.983 294.326 189.421 293.877 190.904 293.778Z" fill="#576065"/>
</svg>
